<svg width="52" height="53" viewBox="0 0 52 53" fill="none" xmlns="http://www.w3.org/2000/svg">
<g clip-path="url(#clip0_938_6616)">
<path d="M26 52.4399C40.3594 52.4399 52 40.7993 52 26.4399C52 12.0805 40.3594 0.439941 26 0.439941C11.6406 0.439941 0 12.0805 0 26.4399C0 40.7993 11.6406 52.4399 26 52.4399Z" fill="#4176FA"/>
<path d="M35.3209 21.9178C27.8112 21.9178 27.8015 29.3992 27.8015 29.4377C27.8015 29.4377 27.287 36.9284 35.3209 36.9284C35.3209 36.9284 42.0209 37.3093 42.0209 31.7152H38.5805C38.5805 31.7152 38.6945 33.8212 35.4354 33.8212C35.4354 33.8212 31.995 34.0502 31.995 30.4188H42.1354C42.1354 30.4188 43.2505 21.9178 35.3209 21.9178ZM31.9565 27.7979C31.9565 27.7979 32.376 24.7862 35.3974 24.7862C38.428 24.7862 38.3803 27.7979 38.3803 27.7979H31.9565ZM23.3609 25.8731C23.3609 25.8731 26.3439 25.6539 26.3439 22.1468C26.3439 18.6494 23.9041 16.9336 20.8067 16.9336H10.6182V36.5182H20.8058C20.8058 36.5182 27.0293 36.7091 27.0293 30.7336C27.0293 30.7336 27.2968 25.8731 23.3609 25.8731ZM15.1074 20.412H20.8063C20.8063 20.412 22.1883 20.412 22.1883 22.4513C22.1883 24.4905 21.3782 24.7862 20.4536 24.7862H15.1074V20.412ZM20.5208 33.0398H15.1074V27.7979H20.8063C20.8063 27.7979 22.8748 27.7789 22.865 30.4949C22.865 32.7826 21.3309 33.0208 20.5208 33.0398ZM31.1084 18.0867V20.4982H39.1904V18.0867H31.1084Z" fill="#F1F2F2"/>
</g>
<defs>
<clipPath id="clip0_938_6616">
<rect width="52" height="52" fill="white" transform="translate(0 0.439941)"/>
</clipPath>
</defs>
</svg>
