<svg width="52" height="53" viewBox="0 0 52 53" fill="none" xmlns="http://www.w3.org/2000/svg">
<g clip-path="url(#clip0_938_6695)">
<path d="M26 52.4399C40.3594 52.4399 52 40.7993 52 26.4399C52 12.0805 40.3594 0.439941 26 0.439941C11.6406 0.439941 0 12.0805 0 26.4399C0 40.7993 11.6406 52.4399 26 52.4399Z" fill="#F26798"/>
<path d="M25.9994 9.92822C16.8833 9.92822 9.4668 17.3359 9.4668 26.4404C9.4668 35.5449 16.8833 42.9522 25.9994 42.9522C35.1159 42.9522 42.5329 35.5454 42.5329 26.4404C42.5329 17.3359 35.1159 9.92822 25.9994 9.92822ZM36.8785 17.7215C38.7644 20.0589 39.9106 23.0107 39.9634 26.2272C39.3359 26.0984 36.6783 25.6029 33.5026 25.6029C32.4778 25.6029 31.3993 25.6544 30.3181 25.7879C30.2268 25.5659 30.1354 25.3448 30.0395 25.1214C29.7591 24.4619 29.4569 23.8074 29.1441 23.1627C34.0319 21.1489 36.3896 18.3542 36.8785 17.7215ZM25.9994 12.513C29.5223 12.513 32.7425 13.8219 35.2022 15.9775C34.8128 16.5086 32.7012 19.1481 27.9882 20.9288C25.8066 16.9411 23.4188 13.6388 22.8506 12.8722C23.8632 12.6377 24.9172 12.513 25.9994 12.513ZM19.9997 13.8664C20.4813 14.5296 22.8728 17.8671 25.1105 21.8228C19.1052 23.4014 13.7725 23.5043 12.4854 23.5043H12.3487C13.2733 19.2431 16.1524 15.7022 19.9997 13.8664ZM12.0317 26.4622C12.0317 26.3473 12.0335 26.2323 12.0372 26.1179C12.1207 26.1188 12.2439 26.1188 12.4038 26.1188C14.1372 26.1188 20.1541 25.9756 26.3544 24.1356C26.7308 24.8716 27.089 25.6187 27.4223 26.3654C27.2656 26.4103 27.1113 26.4553 26.9579 26.5053C19.9765 28.7601 16.1394 34.7292 15.549 35.7048C13.3614 33.2401 12.0317 30.0041 12.0317 26.4622ZM25.9994 40.4105C22.7959 40.4105 19.8394 39.3255 17.4803 37.5064C17.8793 36.724 20.7756 31.5095 28.4262 28.8468C28.4308 28.8449 28.4359 28.8431 28.4415 28.8417C30.3598 33.8361 31.1722 38.0278 31.3952 39.3269C29.735 40.0249 27.9117 40.4105 25.9994 40.4105ZM33.9109 37.9518C33.7237 36.877 32.971 32.9485 31.2339 28.1571C32.2081 28.0056 33.1559 27.9458 34.0449 27.9458C36.9643 27.9458 39.2478 28.5849 39.7785 28.7471C39.1477 32.5518 36.9694 35.8443 33.9109 37.9518Z" fill="#F1F2F2"/>
</g>
<defs>
<clipPath id="clip0_938_6695">
<rect width="52" height="52" fill="white" transform="translate(0 0.439941)"/>
</clipPath>
</defs>
</svg>
