<svg width="52" height="53" viewBox="0 0 52 53" fill="none" xmlns="http://www.w3.org/2000/svg">
<g clip-path="url(#clip0_938_6702)">
<path d="M26 0.439941C11.7194 0.439941 0 12.1593 0 26.4399C0 38.6263 8.55109 49.6962 19.9062 52.4399V43.8381C18.7811 44.0844 17.7457 44.0916 16.6003 43.754C15.0638 43.3005 13.8153 42.2769 12.8885 40.7162C12.2978 39.7196 11.2508 38.6389 10.1586 38.7183L9.89084 35.6833C12.2526 35.481 14.2957 37.1223 15.5085 39.1599C16.0473 40.066 16.6674 40.5972 17.4632 40.8321C18.2325 41.0586 19.0584 40.9499 20.0209 40.6099C20.2625 38.683 21.1452 37.9617 21.8121 36.9461V36.9445C15.04 35.9344 12.341 32.3417 11.2699 29.5059C9.85037 25.7405 10.6121 21.0365 13.1222 18.0638C13.171 18.0059 13.2591 17.8543 13.2249 17.7484C12.074 14.2719 13.4765 11.396 13.528 11.0909C14.8563 11.4837 15.0721 10.6958 19.2977 13.263L20.028 13.7018C20.3335 13.8839 20.2375 13.7799 20.543 13.7569C22.3073 13.2777 24.1671 13.0131 25.9996 12.9893C27.846 13.0131 29.6939 13.2777 31.5312 13.7764L31.7676 13.8002C31.747 13.797 31.8319 13.7851 31.9743 13.7002C37.2528 10.503 37.0632 11.5479 38.4787 11.0877C38.5299 11.3932 39.9137 14.3159 38.7751 17.7484C38.6215 18.2213 43.3513 22.5524 40.7297 29.5047C39.6586 32.3417 36.96 35.9344 30.1879 36.9445V36.9461C31.0559 38.2692 32.0989 38.973 32.0934 41.7025V52.4399C43.4489 49.6962 51.9996 38.6263 51.9996 26.4399C52 12.1593 40.2806 0.439941 26 0.439941Z" fill="black"/>
</g>
<defs>
<clipPath id="clip0_938_6702">
<rect width="52" height="52" fill="white" transform="translate(0 0.439941)"/>
</clipPath>
</defs>
</svg>
