<svg width="52" height="53" viewBox="0 0 52 53" fill="none" xmlns="http://www.w3.org/2000/svg">
<g clip-path="url(#clip0_938_6656)">
<path d="M1.01562 51.5359L4.55 38.6477C2.36641 34.8797 1.21875 30.5938 1.21875 26.2164C1.22891 12.4953 12.3906 1.34375 26.1016 1.34375C32.7539 1.34375 39.0102 3.93359 43.7023 8.63594C48.4047 13.3383 50.9945 19.5844 50.9844 26.2367C50.9742 39.9477 39.8125 51.1094 26.1016 51.1094H26.0914C21.9273 51.1094 17.8344 50.0633 14.1984 48.0828L1.01562 51.5359Z" fill="url(#paint0_linear_938_6656)"/>
<path d="M0.111816 52.4399L3.76807 39.0845C1.51338 35.1845 0.335254 30.7462 0.335254 26.2063C0.335254 11.9978 11.9032 0.439941 26.1118 0.439941C33.0079 0.439941 39.4774 3.13135 44.3423 7.99619C49.2071 12.8712 51.8884 19.3407 51.8884 26.2267C51.8782 40.4353 40.3204 51.9931 26.1118 51.9931H26.1017C21.7853 51.9931 17.5501 50.9063 13.7821 48.8548L0.111816 52.4399ZM14.4118 44.1931L15.1938 44.6603C18.4845 46.6103 22.2524 47.6462 26.1017 47.6462H26.1118C37.9235 47.6462 47.5313 38.0384 47.5313 26.2267C47.5313 20.5087 45.3071 15.1259 41.2649 11.0735C37.2228 7.02119 31.8399 4.79697 26.122 4.79697C14.3001 4.79697 4.69229 14.4048 4.69229 26.2165C4.69229 30.2587 5.81963 34.1993 7.9626 37.6118L8.47041 38.4243L6.30713 46.3259L14.4118 44.1931Z" fill="#F0F0F0"/>
<path fill-rule="evenodd" clip-rule="evenodd" d="M19.6625 15.4307C19.175 14.3541 18.6672 14.3338 18.2102 14.3135C17.8344 14.2932 17.4078 14.3033 16.9711 14.3033C16.5445 14.3033 15.8437 14.4658 15.2547 15.1057C14.6656 15.7455 13 17.3096 13 20.4783C13 23.6471 15.3055 26.7143 15.6305 27.1408C15.9555 27.5674 20.0891 34.2807 26.6297 36.8604C32.0734 39.0033 33.1805 38.5768 34.3586 38.4752C35.5367 38.3736 38.1672 36.9213 38.7055 35.4182C39.2438 33.915 39.2437 32.6252 39.0812 32.3611C38.9187 32.0971 38.4922 31.9346 37.8422 31.6096C37.2023 31.2846 34.0336 29.7307 33.4445 29.5174C32.8555 29.3041 32.4289 29.1924 31.9922 29.8424C31.5656 30.4822 30.3266 31.9346 29.9508 32.3611C29.575 32.7877 29.1992 32.8486 28.5594 32.5236C27.9195 32.1986 25.8375 31.5182 23.3797 29.3244C21.4602 27.6182 20.1703 25.5057 19.7945 24.8658C19.4187 24.226 19.7539 23.8705 20.0789 23.5557C20.3633 23.2713 20.7187 22.8041 21.0437 22.4283C21.3687 22.0525 21.4703 21.7885 21.6836 21.3518C21.8969 20.9252 21.7953 20.5494 21.6328 20.2244C21.4906 19.8893 20.2414 16.7104 19.6625 15.4307Z" fill="white"/>
</g>
<defs>
<linearGradient id="paint0_linear_938_6656" x1="25.9998" y1="51.5401" x2="25.9998" y2="1.3403" gradientUnits="userSpaceOnUse">
<stop stop-color="#20B038"/>
<stop offset="1" stop-color="#60D66A"/>
</linearGradient>
<clipPath id="clip0_938_6656">
<rect width="52" height="52" fill="white" transform="translate(0 0.439941)"/>
</clipPath>
</defs>
</svg>
